<svg width="512" height="512" viewBox="0 0 512 512" fill="none" xmlns="http://www.w3.org/2000/svg">
<path d="M143.332 320.176C138.398 329.331 135.931 338.663 135.931 348.171C135.931 367.538 146.327 384.44 167.119 398.878C186.149 412.259 208.174 418.949 233.194 418.949C283.236 418.949 316.185 403.103 332.043 371.411C336.977 361.199 339.444 350.459 339.444 339.191C339.444 311.021 318.123 286.019 275.483 264.187C272.663 262.779 269.668 261.194 266.496 259.433L252.224 253.095C216.279 236.897 194.254 218.586 186.149 198.162C183.682 191.472 182.448 184.429 182.448 177.034C182.448 148.16 198.835 122.102 231.609 98.8611C265.439 76.6767 300.327 65.0564 336.272 64C356.359 64 374.684 67.5213 391.247 74.564C405.343 80.9023 414.153 88.2971 417.677 96.7483C419.791 102.03 420.849 108.193 420.849 115.235C420.849 130.377 416.796 141.469 408.691 148.512C396.709 157.667 386.489 162.245 378.032 162.245C374.508 162.245 372.746 161.012 372.746 158.547L373.274 154.322V153.265C375.036 146.927 375.917 141.645 375.917 137.42C375.917 122.63 369.046 111.89 355.302 105.199C354.245 104.847 353.011 104.319 351.602 103.615C336.096 96.5722 319.357 93.0509 301.384 93.0509C277.773 93.0509 259.801 98.3329 247.467 108.897C235.485 122.278 228.789 137.42 227.38 154.322C227.38 179.323 245 200.803 280.24 218.762L280.769 219.29L300.327 228.27C345.787 248.341 372.57 270.525 380.675 294.823C383.142 301.513 384.375 308.732 384.375 316.479C384.375 349.227 366.05 378.806 329.4 405.216C294.16 430.569 254.515 444.655 210.464 447.472C206.236 447.824 202.183 448 198.307 448C160.599 448 131.174 436.732 110.03 414.195C97.3432 400.814 91 386.377 91 370.883C91 342.712 104.215 320.88 130.645 305.387C142.275 298.696 152.318 295.351 160.776 295.351C165.005 295.351 167.119 296.583 167.119 299.048C167.119 304.33 160.247 310.845 146.503 318.591L143.332 320.176Z" fill="white"/>
</svg>
